Exact Audio Copy V0.99 prebeta 1 from 25. May 2007

EAC 抓取日志文件从15. 三月 2011, 21:45

群星 / 军旅歌坛名人集2

使用驱动器  ：PIONEER DVD-RW  DVR-115   Adapter: 0  ID: 0

读取模式     : 保护
使用精确流   : 是
废除音频缓冲 : 是
使用 C2 指针 : 否

组合读/写偏移校正              : 48
读取 Lead-In 和 Lead-Out       : 否
用静音填充抓取中丢失偏移的采样 : 是
去除首尾静音块                 : 否
已用接口                       : Win NT 及 2000 本地 Win32 接口

所用输出格式 : 内部 WAV 函数
样本格式     : 44.100 Hz;16 Bit;立体声
使用压缩偏移 : 48


被抓轨 CD 的 TOC

     音轨 |   开始   |   长度   | 起始扇区 | 结尾扇区 
    --------------------------------------------------
       1  |  0:00.32 |  3:55.68 |      32  |   17724  
       2  |  3:56.25 |  3:51.05 |   17725  |   35054  
       3  |  7:47.30 |  1:52.37 |   35055  |   43491  
       4  |  9:39.67 |  2:20.25 |   43492  |   54016  
       5  | 12:00.17 |  4:06.15 |   54017  |   72481  
       6  | 16:06.32 |  3:09.15 |   72482  |   86671  
       7  | 19:15.47 |  4:23.65 |   86672  |  106461  
       8  | 23:39.37 |  4:18.68 |  106462  |  125879  
       9  | 27:58.30 |  2:10.12 |  125880  |  135641  
      10  | 30:08.42 |  2:59.70 |  135642  |  149136  
      11  | 33:08.37 |  4:06.63 |  149137  |  167649  
      12  | 37:15.25 |  2:34.00 |  167650  |  179199  
      13  | 39:49.25 |  3:12.67 |  179200  |  193666  
      14  | 43:02.17 |  2:53.68 |  193667  |  206709  
      15  | 45:56.10 |  4:44.32 |  206710  |  228041  
      16  | 50:40.42 |  3:46.68 |  228042  |  245059  
      17  | 54:27.35 |  4:41.72 |  245060  |  266206  


范围状态及错误

已选择范围

     文件名 E:\20世纪中华歌坛名人百集珍藏版-军旅歌坛名人集2[lwg188原创]\群星 - 军旅歌坛名人集2.wav

     峰值电平 100.0 %
     范围质量 99.9 %
     复制 CRC 028233E8
     复制成功

没有错误发生

状态报告结尾
